/* XPM */
static char * cz_xpm[] = {
"20 12 47 1",
" 	c None",
".	c #555555",
"+	c #C8C8E6",
"@	c #C7C1C6",
"#	c #865E45",
"$	c #231105",
"%	c #000000",
"&	c #00003A",
"*	c #8AB19F",
"=	c #320000",
"-	c #8ABCE6",
";	c #C8C7D7",
">	c #914B14",
",	c #174B92",
"'	c #A4B9E1",
")	c #C7C8E6",
"!	c #C8C8E3",
"~	c #B89571",
"{	c #2D0900",
"]	c #103C88",
"^	c #ACC3E6",
"/	c #C8BEA9",
"(	c #410900",
"_	c #00002F",
":	c #79B2E3",
"<	c #C8C7DC",
"[	c #A7794D",
"}	c #150006",
"|	c #275AA3",
"1	c #B4C5E6",
"2	c #7AB3E4",
"3	c #C8C5CF",
"4	c #8E592C",
"5	c #050019",
"6	c #447AC0",
"7	c #C0C7E6",
"8	c #904B13",
"9	c #184D95",
"0	c #A5BAE1",
"a	c #C8C3C6",
"b	c #773C12",
"c	c #000936",
"d	c #6497D4",
"e	c #C6C8E6",
"f	c #C7C1C5",
"g	c #855D45",
"h	c #221004",
"....................",
".++++++++++++++++++.",
".++++++++++++++++++.",
".+++@#$%%&*=%%%%&-+.",
".++;>%,')++++!~{]^+.",
".++/(_:+++++<[}|1++.",
".++/(_2++++34567+++.",
".++;8%90)+abcde++++.",
".+++fgh%%&*=%%%%&-+.",
".++++++++++++++++++.",
".++++++++++++++++++.",
"...................."};
