/* XPM */
static char * en_xpm[] = {
"20 12 54 1",
" 	c None",
".	c #555555",
"+	c #C8C8E6",
"@	c #C6B9AF",
"#	c #6B4127",
"$	c #0D0000",
"%	c #000006",
"&	c #152D5B",
"*	c #7BA6DC",
"=	c #C7BC9F",
"-	c #320000",
";	c #000019",
">	c #3C3825",
",	c #090000",
"'	c #00051D",
")	c #3C70BD",
"!	c #C0C8E6",
"~	c #C8C6D2",
"{	c #873D0B",
"]	c #00001A",
"^	c #5594D1",
"/	c #B89B6A",
"(	c #1B0000",
"_	c #001F73",
":	c #A6B89F",
"<	c #000010",
"[	c #4485C9",
"}	c #B69A69",
"|	c #190000",
"1	c #00094D",
"2	c #93BEE6",
"3	c #C8BEA8",
"4	c #400800",
"5	c #000000",
"6	c #00023C",
"7	c #8CB19F",
"8	c #000038",
"9	c #87BAE6",
"0	c #C8BB9E",
"a	c #00003A",
"b	c #8ABCE6",
"c	c #C8BEA7",
"d	c #3F0700",
"e	c #000031",
"f	c #7DB4E4",
"g	c #C8BC9F",
"h	c #C8C6D1",
"i	c #853C0A",
"j	c #235DA7",
"k	c #B2C1E4",
"l	c #C6BBB3",
"m	c #724A32",
"n	c #160700",
"o	c #8AB19F",
"....................",
".++++++++++++++++++.",
".++++++++++++++++++.",
".+++@#$%&*=-;>,')!+.",
".++~{]^/(_:-<[}|12+.",
".++34555567-890-ab+.",
".++cdef+++g-abg-ab+.",
".++hi5jk++g-abg-ab+.",
".+++lmn55ao-abg-ab+.",
".++++++++++++++++++.",
".++++++++++++++++++.",
"...................."};
