/* XPM */
static char * ru_xpm[] = {
"20 12 33 1",
" 	c None",
".	c #555555",
"+	c #C8C8E6",
"@	c #C8BC9F",
"#	c #320000",
"$	c #000017",
"%	c #383521",
"&	c #070000",
"*	c #00003A",
"=	c #8AB19F",
"-	c #8ABCE6",
";	c #000000",
">	c #215BA6",
",	c #B0BED5",
"'	c #A17E86",
")	c #9FB49F",
"!	c #000031",
"~	c #7CB4E4",
"{	c #89BBE6",
"]	c #C8BA9B",
"^	c #310000",
"/	c #C8BEA9",
"(	c #420900",
"_	c #00001E",
":	c #5D9BD3",
"<	c #B08852",
"[	c #100000",
"}	c #C8C8DD",
"|	c #A47046",
"1	c #190500",
"2	c #000009",
"3	c #1D3541",
"4	c #150000",
"....................",
".++++++++++++++++++.",
".++++++++++++++++++.",
".+++@#$%&*=#*-@#*-+.",
".+++@#;>,')#*-@#*-+.",
".+++@#!~++@#*-@#*-+.",
".+++@#*{++@#*{]^*-+.",
".+++@#*-++/(_:<[*-+.",
".+++@#*-++}|1234*-+.",
".++++++++++++++++++.",
".++++++++++++++++++.",
"...................."};
